<mxfile host="app.diagrams.net" agent="Mozilla/5.0 (Windows NT 10.0; Win64; x64) AppleWebKit/537.36 (KHTML, like Gecko) Chrome/130.0.0.0 YaBrowser/24.12.0.0 Safari/537.36" version="25.0.3">
  <diagram name="Страница — 1" id="jgrxI2mOvpPz9Kl4fAN6">
    <mxGraphModel dx="1290" dy="575" grid="1" gridSize="10" guides="1" tooltips="1" connect="1" arrows="1" fold="1" page="1" pageScale="1" pageWidth="827" pageHeight="1169" math="0" shadow="0">
      <root>
        <mxCell id="0" />
        <mxCell id="1" parent="0" />
        <mxCell id="Kvuu8C_adr246IMBF3fn-1" style="edgeStyle=orthogonalEdgeStyle;rounded=0;orthogonalLoop=1;jettySize=auto;html=1;" edge="1" parent="1" source="Kvuu8C_adr246IMBF3fn-2" target="Kvuu8C_adr246IMBF3fn-4">
          <mxGeometry relative="1" as="geometry">
            <mxPoint x="130" y="80" as="targetPoint" />
          </mxGeometry>
        </mxCell>
        <mxCell id="Kvuu8C_adr246IMBF3fn-2" value="начало&lt;div&gt;countingSort&lt;/div&gt;" style="ellipse;whiteSpace=wrap;html=1;" vertex="1" parent="1">
          <mxGeometry x="60" width="140" height="50" as="geometry" />
        </mxCell>
        <mxCell id="Kvuu8C_adr246IMBF3fn-3" style="edgeStyle=orthogonalEdgeStyle;rounded=0;orthogonalLoop=1;jettySize=auto;html=1;" edge="1" parent="1" source="Kvuu8C_adr246IMBF3fn-4" target="Kvuu8C_adr246IMBF3fn-7">
          <mxGeometry relative="1" as="geometry">
            <mxPoint x="130" y="140" as="targetPoint" />
          </mxGeometry>
        </mxCell>
        <mxCell id="Kvuu8C_adr246IMBF3fn-4" value="arr,n,comparator" style="shape=parallelogram;perimeter=parallelogramPerimeter;whiteSpace=wrap;html=1;fixedSize=1;" vertex="1" parent="1">
          <mxGeometry x="60" y="70" width="140" height="50" as="geometry" />
        </mxCell>
        <mxCell id="Kvuu8C_adr246IMBF3fn-5" value="" style="endArrow=none;dashed=1;html=1;rounded=0;" edge="1" parent="1" target="Kvuu8C_adr246IMBF3fn-6">
          <mxGeometry width="50" height="50" relative="1" as="geometry">
            <mxPoint x="190" y="100" as="sourcePoint" />
            <mxPoint x="260" y="100" as="targetPoint" />
          </mxGeometry>
        </mxCell>
        <mxCell id="Kvuu8C_adr246IMBF3fn-6" value="переменные для&lt;div&gt;процедуры,&lt;/div&gt;&lt;div&gt;по ссылке&lt;/div&gt;" style="strokeWidth=2;html=1;shape=mxgraph.flowchart.annotation_1;align=left;pointerEvents=1;" vertex="1" parent="1">
          <mxGeometry x="220" y="70" width="50" height="60" as="geometry" />
        </mxCell>
        <mxCell id="Kvuu8C_adr246IMBF3fn-8" style="edgeStyle=orthogonalEdgeStyle;rounded=0;orthogonalLoop=1;jettySize=auto;html=1;" edge="1" parent="1" source="Kvuu8C_adr246IMBF3fn-7" target="Kvuu8C_adr246IMBF3fn-9">
          <mxGeometry relative="1" as="geometry">
            <mxPoint x="130" y="200" as="targetPoint" />
          </mxGeometry>
        </mxCell>
        <mxCell id="Kvuu8C_adr246IMBF3fn-7" value="&amp;nbsp;max1 := arr[1]&lt;div&gt;i:=2&lt;/div&gt;" style="rounded=0;whiteSpace=wrap;html=1;" vertex="1" parent="1">
          <mxGeometry x="60" y="140" width="140" height="40" as="geometry" />
        </mxCell>
        <mxCell id="Kvuu8C_adr246IMBF3fn-10" style="edgeStyle=orthogonalEdgeStyle;rounded=0;orthogonalLoop=1;jettySize=auto;html=1;" edge="1" parent="1" source="Kvuu8C_adr246IMBF3fn-9" target="Kvuu8C_adr246IMBF3fn-11">
          <mxGeometry relative="1" as="geometry">
            <mxPoint x="130" y="270" as="targetPoint" />
          </mxGeometry>
        </mxCell>
        <mxCell id="Kvuu8C_adr246IMBF3fn-9" value="Цикл 1&lt;div&gt;i&amp;gt;n&lt;/div&gt;" style="shape=loopLimit;whiteSpace=wrap;html=1;" vertex="1" parent="1">
          <mxGeometry x="60" y="200" width="140" height="50" as="geometry" />
        </mxCell>
        <mxCell id="Kvuu8C_adr246IMBF3fn-12" style="edgeStyle=orthogonalEdgeStyle;rounded=0;orthogonalLoop=1;jettySize=auto;html=1;" edge="1" parent="1" source="Kvuu8C_adr246IMBF3fn-11" target="Kvuu8C_adr246IMBF3fn-13">
          <mxGeometry relative="1" as="geometry">
            <mxPoint x="130" y="350" as="targetPoint" />
          </mxGeometry>
        </mxCell>
        <mxCell id="Kvuu8C_adr246IMBF3fn-16" style="edgeStyle=orthogonalEdgeStyle;rounded=0;orthogonalLoop=1;jettySize=auto;html=1;exitX=1;exitY=0.5;exitDx=0;exitDy=0;entryX=0.5;entryY=0;entryDx=0;entryDy=0;" edge="1" parent="1" source="Kvuu8C_adr246IMBF3fn-11" target="Kvuu8C_adr246IMBF3fn-15">
          <mxGeometry relative="1" as="geometry">
            <Array as="points">
              <mxPoint x="240" y="300" />
              <mxPoint x="240" y="400" />
              <mxPoint x="130" y="400" />
            </Array>
          </mxGeometry>
        </mxCell>
        <mxCell id="Kvuu8C_adr246IMBF3fn-11" value="arr[i] &amp;gt; max1" style="rhombus;whiteSpace=wrap;html=1;" vertex="1" parent="1">
          <mxGeometry x="60" y="270" width="140" height="60" as="geometry" />
        </mxCell>
        <mxCell id="Kvuu8C_adr246IMBF3fn-14" style="edgeStyle=orthogonalEdgeStyle;rounded=0;orthogonalLoop=1;jettySize=auto;html=1;" edge="1" parent="1" source="Kvuu8C_adr246IMBF3fn-13" target="Kvuu8C_adr246IMBF3fn-15">
          <mxGeometry relative="1" as="geometry">
            <mxPoint x="130" y="420" as="targetPoint" />
          </mxGeometry>
        </mxCell>
        <mxCell id="Kvuu8C_adr246IMBF3fn-13" value="max1 := arr[i]" style="rounded=0;whiteSpace=wrap;html=1;" vertex="1" parent="1">
          <mxGeometry x="60" y="350" width="140" height="40" as="geometry" />
        </mxCell>
        <mxCell id="Kvuu8C_adr246IMBF3fn-19" style="edgeStyle=orthogonalEdgeStyle;rounded=0;orthogonalLoop=1;jettySize=auto;html=1;" edge="1" parent="1" source="Kvuu8C_adr246IMBF3fn-15" target="Kvuu8C_adr246IMBF3fn-20">
          <mxGeometry relative="1" as="geometry">
            <mxPoint x="130" y="470" as="targetPoint" />
          </mxGeometry>
        </mxCell>
        <mxCell id="Kvuu8C_adr246IMBF3fn-15" value="i+=1" style="rounded=0;whiteSpace=wrap;html=1;" vertex="1" parent="1">
          <mxGeometry x="60" y="410" width="140" height="40" as="geometry" />
        </mxCell>
        <mxCell id="Kvuu8C_adr246IMBF3fn-17" value="нет" style="text;html=1;align=center;verticalAlign=middle;whiteSpace=wrap;rounded=0;" vertex="1" parent="1">
          <mxGeometry x="190" y="270" width="60" height="30" as="geometry" />
        </mxCell>
        <mxCell id="Kvuu8C_adr246IMBF3fn-18" value="да" style="text;html=1;align=center;verticalAlign=middle;whiteSpace=wrap;rounded=0;" vertex="1" parent="1">
          <mxGeometry x="120" y="320" width="60" height="30" as="geometry" />
        </mxCell>
        <mxCell id="Kvuu8C_adr246IMBF3fn-21" style="edgeStyle=orthogonalEdgeStyle;rounded=0;orthogonalLoop=1;jettySize=auto;html=1;" edge="1" parent="1" source="Kvuu8C_adr246IMBF3fn-20" target="Kvuu8C_adr246IMBF3fn-22">
          <mxGeometry relative="1" as="geometry">
            <mxPoint x="130" y="540" as="targetPoint" />
          </mxGeometry>
        </mxCell>
        <mxCell id="Kvuu8C_adr246IMBF3fn-20" value="Цикл 1" style="shape=loopLimit;whiteSpace=wrap;html=1;direction=west;" vertex="1" parent="1">
          <mxGeometry x="60" y="470" width="140" height="50" as="geometry" />
        </mxCell>
        <mxCell id="Kvuu8C_adr246IMBF3fn-23" style="edgeStyle=orthogonalEdgeStyle;rounded=0;orthogonalLoop=1;jettySize=auto;html=1;" edge="1" parent="1" source="Kvuu8C_adr246IMBF3fn-22" target="Kvuu8C_adr246IMBF3fn-24">
          <mxGeometry relative="1" as="geometry">
            <mxPoint x="130" y="610" as="targetPoint" />
          </mxGeometry>
        </mxCell>
        <mxCell id="Kvuu8C_adr246IMBF3fn-22" value="exp := 1" style="rounded=0;whiteSpace=wrap;html=1;" vertex="1" parent="1">
          <mxGeometry x="60" y="544.5" width="140" height="40" as="geometry" />
        </mxCell>
        <mxCell id="Kvuu8C_adr246IMBF3fn-25" style="edgeStyle=orthogonalEdgeStyle;rounded=0;orthogonalLoop=1;jettySize=auto;html=1;" edge="1" parent="1" source="Kvuu8C_adr246IMBF3fn-24" target="Kvuu8C_adr246IMBF3fn-26">
          <mxGeometry relative="1" as="geometry">
            <mxPoint x="130" y="680" as="targetPoint" />
          </mxGeometry>
        </mxCell>
        <mxCell id="Kvuu8C_adr246IMBF3fn-24" value="Цикл 2&lt;div&gt;max1 div exp &amp;lt;= 0&lt;/div&gt;" style="shape=loopLimit;whiteSpace=wrap;html=1;" vertex="1" parent="1">
          <mxGeometry x="60" y="610" width="140" height="50" as="geometry" />
        </mxCell>
        <mxCell id="Kvuu8C_adr246IMBF3fn-27" style="edgeStyle=orthogonalEdgeStyle;rounded=0;orthogonalLoop=1;jettySize=auto;html=1;" edge="1" parent="1" source="Kvuu8C_adr246IMBF3fn-26" target="Kvuu8C_adr246IMBF3fn-28">
          <mxGeometry relative="1" as="geometry">
            <mxPoint x="130" y="740" as="targetPoint" />
          </mxGeometry>
        </mxCell>
        <mxCell id="Kvuu8C_adr246IMBF3fn-26" value="&lt;div&gt;countingSort(arr, n, exp, comparator);&lt;/div&gt;&lt;div&gt;&amp;nbsp; &amp;nbsp; exp := exp * 10;&lt;/div&gt;" style="rounded=0;whiteSpace=wrap;html=1;" vertex="1" parent="1">
          <mxGeometry x="60" y="680" width="140" height="40" as="geometry" />
        </mxCell>
        <mxCell id="Kvuu8C_adr246IMBF3fn-29" style="edgeStyle=orthogonalEdgeStyle;rounded=0;orthogonalLoop=1;jettySize=auto;html=1;" edge="1" parent="1" source="Kvuu8C_adr246IMBF3fn-28">
          <mxGeometry relative="1" as="geometry">
            <mxPoint x="130" y="810" as="targetPoint" />
          </mxGeometry>
        </mxCell>
        <mxCell id="Kvuu8C_adr246IMBF3fn-28" value="Цикл 2" style="shape=loopLimit;whiteSpace=wrap;html=1;direction=west;" vertex="1" parent="1">
          <mxGeometry x="60" y="740" width="140" height="50" as="geometry" />
        </mxCell>
        <mxCell id="Kvuu8C_adr246IMBF3fn-30" value="конец&lt;br&gt;&lt;div&gt;countingSort&lt;/div&gt;" style="ellipse;whiteSpace=wrap;html=1;" vertex="1" parent="1">
          <mxGeometry x="60" y="810" width="140" height="50" as="geometry" />
        </mxCell>
      </root>
    </mxGraphModel>
  </diagram>
</mxfile>
